<svg width="14" height="21" viewBox="0 0 14 21" fill="none" xmlns="http://www.w3.org/2000/svg">
<path d="M0.592773 11.7002C0.592773 11.5068 0.671875 11.3076 0.830078 11.1025L9.04785 0.951172C9.20605 0.751953 9.37598 0.631836 9.55762 0.59082C9.73926 0.549805 9.90332 0.567383 10.0498 0.643555C10.1963 0.719727 10.2988 0.845703 10.3574 1.02148C10.416 1.19141 10.3984 1.39355 10.3047 1.62793L7.63281 8.83496H12.7217C12.9209 8.83496 13.082 8.89648 13.2051 9.01953C13.334 9.13672 13.3984 9.28906 13.3984 9.47656C13.3984 9.66992 13.3193 9.86621 13.1611 10.0654L4.94336 20.2256C4.78516 20.4189 4.61523 20.5361 4.43359 20.5771C4.25195 20.624 4.08789 20.6094 3.94141 20.5332C3.79492 20.457 3.69238 20.3311 3.63379 20.1553C3.5752 19.9854 3.59277 19.7803 3.68652 19.54L6.3584 12.333H1.26953C1.07031 12.333 0.90625 12.2744 0.777344 12.1572C0.654297 12.0342 0.592773 11.8818 0.592773 11.7002Z" fill="#007AFF"/>
</svg>
