<svg width="24" height="14" viewBox="0 0 24 14" fill="none" xmlns="http://www.w3.org/2000/svg">
<path d="M6.0498 2.10156C5.81543 2.10156 5.61621 2.02246 5.45215 1.86426C5.29395 1.7002 5.21484 1.50098 5.21484 1.2666C5.21484 1.03223 5.29395 0.835938 5.45215 0.677734C5.61621 0.513672 5.81543 0.431641 6.0498 0.431641H17.9854C18.2197 0.431641 18.4189 0.513672 18.583 0.677734C18.7471 0.835938 18.8291 1.03223 18.8291 1.2666C18.8291 1.50684 18.7471 1.70605 18.583 1.86426C18.4189 2.02246 18.2197 2.10156 17.9854 2.10156H6.0498ZM8.28223 7.49805C8.05371 7.49805 7.85742 7.41895 7.69336 7.26074C7.53516 7.09668 7.45605 6.89746 7.45605 6.66309C7.45605 6.42871 7.53516 6.23242 7.69336 6.07422C7.85742 5.91016 8.05371 5.82812 8.28223 5.82812H20.2354C20.4697 5.82812 20.666 5.91016 20.8242 6.07422C20.9824 6.23242 21.0615 6.42871 21.0615 6.66309C21.0615 6.89746 20.9824 7.09668 20.8242 7.26074C20.666 7.41895 20.4697 7.49805 20.2354 7.49805H8.28223ZM10.5322 12.8945C10.2979 12.8945 10.0986 12.8154 9.93457 12.6572C9.77637 12.499 9.69727 12.3027 9.69727 12.0684C9.69727 11.8281 9.77637 11.6289 9.93457 11.4707C10.0986 11.3066 10.2979 11.2246 10.5322 11.2246H22.4766C22.7109 11.2246 22.9072 11.3066 23.0654 11.4707C23.2236 11.6348 23.3027 11.834 23.3027 12.0684C23.3027 12.3027 23.2236 12.499 23.0654 12.6572C22.9072 12.8154 22.7109 12.8945 22.4766 12.8945H10.5322ZM1.93652 2.50586C1.59668 2.50586 1.30371 2.38574 1.05762 2.14551C0.817383 1.90527 0.697266 1.6123 0.697266 1.2666C0.697266 0.920898 0.817383 0.62793 1.05762 0.387695C1.30371 0.147461 1.59668 0.0273438 1.93652 0.0273438C2.27637 0.0273438 2.56641 0.147461 2.80664 0.387695C3.05273 0.62793 3.17578 0.920898 3.17578 1.2666C3.17578 1.6123 3.05273 1.90527 2.80664 2.14551C2.56641 2.38574 2.27637 2.50586 1.93652 2.50586ZM4.17773 7.90234C3.83203 7.90234 3.53906 7.78223 3.29883 7.54199C3.05859 7.2959 2.93848 7.00293 2.93848 6.66309C2.93848 6.32324 3.05859 6.0332 3.29883 5.79297C3.53906 5.54688 3.83203 5.42383 4.17773 5.42383C4.51758 5.42383 4.80762 5.54688 5.04785 5.79297C5.29395 6.0332 5.41699 6.32324 5.41699 6.66309C5.41699 7.00293 5.29395 7.2959 5.04785 7.54199C4.80762 7.78223 4.51758 7.90234 4.17773 7.90234ZM6.41895 13.2988C6.0791 13.2988 5.78613 13.1787 5.54004 12.9385C5.2998 12.6982 5.17969 12.4082 5.17969 12.0684C5.17969 11.7227 5.2998 11.4297 5.54004 11.1895C5.78613 10.9492 6.0791 10.8291 6.41895 10.8291C6.76465 10.8291 7.05762 10.9492 7.29785 11.1895C7.53809 11.4297 7.6582 11.7227 7.6582 12.0684C7.6582 12.4082 7.53809 12.6982 7.29785 12.9385C7.05762 13.1787 6.76465 13.2988 6.41895 13.2988Z" fill="#007AFF"/>
</svg>
